<?xml version="1.0" standalone="no"?><svg xmlns="http://www.w3.org/2000/svg" viewBox="0 0 1440 320"><path fill="#0099ff" fill-opacity="1" d="M0,0L30,21.3C60,43,120,85,180,133.3C240,181,300,235,360,224C420,213,480,139,540,106.7C600,75,660,85,720,117.3C780,149,840,203,900,213.3C960,224,1020,192,1080,170.7C1140,149,1200,139,1260,117.3C1320,96,1380,64,1410,48L1440,32L1440,0L1410,0C1380,0,1320,0,1260,0C1200,0,1140,0,1080,0C1020,0,960,0,900,0C840,0,780,0,720,0C660,0,600,0,540,0C480,0,420,0,360,0C300,0,240,0,180,0C120,0,60,0,30,0L0,0Z"></path></svg>